<svg width="84" height="84" viewBox="0 0 84 84" fill="none" xmlns="http://www.w3.org/2000/svg">
<g id="&#233;&#133;&#141;&#231;&#189;&#174;_config 1">
<g id="Group 481466">
<path id="Vector" d="M7.49267 41.9679L17.8353 52.3106L17.8353 66.1007L31.6255 66.1007L41.9681 76.4434L52.3107 66.1007L66.1009 66.1007L66.1009 52.3106L76.4435 41.9679L66.1009 31.6253L66.1009 17.8351L52.3107 17.8351L41.9681 7.49251L31.6255 17.8351L17.8353 17.8351L17.8353 31.6253L7.49267 41.9679Z" stroke="#FF8B4A" stroke-width="6" stroke-linejoin="round"/>
<path id="Vector_2" fill-rule="evenodd" clip-rule="evenodd" d="M42 59C43.6568 59 45 57.6568 45 56C45 54.3432 43.6568 53 42 53C40.3432 53 39 54.3432 39 56C39 57.6568 40.3432 59 42 59Z" fill="#FF8B4A"/>
<path id="Vector_3" d="M42.4824 27.4897V46.4897" stroke="#FF8B4A" stroke-width="6" stroke-linecap="round" stroke-linejoin="round"/>
</g>
</g>
</svg>
